<svg id="Layer_1" enable-background="new 0 0 512 512" height="512" viewBox="0 0 512 512" width="512" xmlns="http://www.w3.org/2000/svg"><path d="m321.89 257.127h94.11c52.93 0 96-43.06 96-96 0-4.64-2.01-9.05-5.52-12.09l-84.66-73.37c-20.382-17.672-49.308-15.701-67.37.51-75.597-62.153-192.977-60.236-267.18 26.12l-13.78 17.24c-47.39 59.32-73.49 133.81-73.49 209.72 0 82.373 67.357 151.929 154.23 149.64l19.25-.59c29.25-.89 56.74-12.77 77.42-33.45 30.575-30.576 30.69-79.953.41-110.69-31.353-31.818-85.3-9.326-85.3 34.96 0 13.131 5.038 25.697 14.68 35.32 6.24 6.25 16.37 6.25 22.62 0s6.25-16.38 0-22.63c-3.596-3.588-5.3-8.094-5.3-12.69 0-15.917 19.36-23.792 30.5-12.51 17.956 18.226 17.877 47.503-.23 65.61-14.9 14.9-34.7 23.45-55.77 24.09-18.777.59-24.786 1.037-34.48.08-30.18-6.15-53.64-30.78-58.03-61.56 0-26.368-.782-18.626 3.01-33.78l9.11-36.43c9.45-37.79 42.76-64.42 81.5-65.46l2.41 40.9c.49 8.46 7.5 15.06 15.97 15.06h48c8.84 0 16-7.16 16-16 0-8.83-7.16-16-16-16h-32.91l-1.41-24h84.78c-9.818 27.394 10.659 56 39.43 56h86.11c8.84 0 16-7.16 16-16 0-8.83-7.16-16-16-16h-86.11c-7.311 0-12.128-7.705-8.85-14.31z"/></svg>