<?xml version="1.0" standalone="no"?>
<!DOCTYPE svg PUBLIC "-//W3C//DTD SVG 20010904//EN"
 "http://www.w3.org/TR/2001/REC-SVG-20010904/DTD/svg10.dtd">
<svg version="1.0" xmlns="http://www.w3.org/2000/svg"
 width="1280.000000pt" height="776.000000pt" viewBox="0 0 1280.000000 776.000000"
 preserveAspectRatio="xMidYMid meet">
<metadata>
Created by potrace 1.15, written by Peter Selinger 2001-2017
</metadata>
<g transform="translate(0.000000,776.000000) scale(0.100000,-0.100000)"
fill="#000000" stroke="none">
<path d="M10292 7747 c-7 -8 -29 -53 -48 -98 -19 -46 -43 -92 -53 -103 -20
-20 -41 -15 -41 10 0 16 -37 94 -45 94 -2 0 -1 -22 2 -50 5 -42 3 -50 -11 -50
-19 0 -20 -2 -3 -43 34 -80 45 -262 22 -349 -10 -38 1 -64 19 -49 31 26 36
184 11 307 -17 80 -15 95 9 75 41 -34 85 14 136 148 24 61 25 136 2 108z"/>
<path d="M8950 7729 c0 -10 22 -64 48 -120 27 -57 72 -160 101 -229 54 -130
76 -168 88 -157 10 11 -10 62 -94 242 -81 176 -143 289 -143 264z"/>
<path d="M10305 7586 c-33 -83 -65 -173 -72 -201 -15 -65 -16 -221 -2 -247 10
-18 17 -20 72 -14 34 4 76 11 92 16 17 4 43 11 60 15 28 6 29 6 12 -12 -24
-27 -95 -61 -174 -83 -79 -23 -107 -47 -127 -109 -36 -112 -71 -511 -47 -536
5 -6 16 -33 25 -62 21 -63 54 -110 165 -233 116 -129 423 -440 433 -440 13 0
-44 80 -82 115 -78 73 -388 412 -436 478 -29 39 -58 91 -63 114 -16 61 -13
274 4 372 8 46 24 108 35 138 24 63 24 66 8 58 -7 -4 1 7 18 23 17 16 53 37
80 47 113 41 155 66 185 113 27 42 59 133 59 164 0 7 -15 -13 -32 -45 -40 -73
-57 -81 -242 -112 l-39 -6 5 118 c5 99 10 127 33 178 36 81 96 266 93 286 -2
9 -30 -52 -63 -135z"/>
<path d="M8879 7657 c5 -13 37 -79 70 -145 78 -156 101 -217 101 -270 0 -77
-33 -69 -172 45 -43 35 -80 63 -83 63 -23 0 91 -129 151 -170 80 -56 124 -33
124 66 0 86 -33 168 -138 347 -46 80 -69 107 -53 64z"/>
<path d="M5245 7619 c-188 -27 -229 -34 -325 -55 -238 -53 -600 -157 -765
-219 -39 -14 -105 -39 -147 -55 -42 -15 -91 -35 -110 -43 -18 -9 -60 -25 -93
-37 -92 -32 -127 -49 -295 -132 -256 -127 -410 -219 -525 -312 -241 -197 -426
-390 -539 -564 -56 -87 -61 -92 -70 -70 -7 14 -11 147 -11 343 0 333 -1 340
-45 380 -32 29 -108 24 -196 -13 -305 -128 -550 -289 -764 -501 -64 -64 -131
-138 -149 -165 -95 -144 -143 -290 -170 -521 -7 -55 -16 -133 -21 -174 l-8
-74 -200 -201 c-109 -111 -217 -223 -239 -251 -58 -72 -115 -171 -163 -283
-23 -53 -50 -115 -60 -137 -29 -66 -147 -368 -181 -462 -124 -349 -159 -532
-166 -880 l-5 -232 71 -79 c78 -86 120 -121 153 -127 11 -3 31 -11 45 -20 29
-19 43 -12 43 21 0 32 9 30 63 -11 25 -19 50 -35 56 -35 6 0 26 14 44 30 41
36 55 38 59 8 3 -22 8 -23 78 -23 70 1 163 11 305 34 54 9 93 16 235 40 53 10
188 37 245 51 314 74 406 103 603 196 41 19 76 34 78 34 3 0 62 28 132 62 140
68 289 151 360 202 26 18 58 38 71 45 l24 13 -7 -98 c-20 -288 -63 -373 -388
-761 -296 -354 -683 -724 -830 -795 -21 -10 -82 -30 -136 -44 -53 -14 -110
-29 -127 -34 -92 -24 -205 -74 -280 -125 -134 -89 -213 -175 -277 -297 -30
-57 -33 -71 -31 -143 1 -56 9 -102 26 -154 25 -72 70 -151 85 -151 5 0 14 22
21 48 7 28 28 68 51 96 22 26 45 66 51 89 22 83 96 160 219 229 98 54 262 87
441 88 89 0 102 -3 155 -30 66 -35 121 -82 182 -154 23 -28 58 -70 77 -93 30
-35 44 -63 32 -63 -2 0 -33 9 -68 20 -125 39 -136 42 -155 37 -16 -4 -16 -5 4
-6 25 -1 30 -16 7 -25 -31 -11 -13 -23 43 -29 31 -3 100 -19 152 -37 112 -37
119 -37 230 -16 195 37 305 72 455 146 55 27 111 53 125 59 14 5 112 90 218
190 106 100 198 181 203 181 5 0 9 -10 9 -22 0 -14 4 -18 9 -13 14 15 87 167
94 196 6 24 4 26 -20 21 -23 -4 -25 -2 -19 14 4 10 11 39 16 64 9 43 61 248
81 318 5 17 13 47 18 65 27 99 109 297 155 372 109 179 259 314 486 437 209
113 313 156 380 158 32 0 93 22 114 39 39 33 141 -25 221 -126 120 -151 173
-354 130 -495 -7 -26 -35 -90 -61 -143 -42 -84 -50 -95 -74 -95 -67 0 -143
-24 -174 -54 -17 -17 -60 -56 -96 -86 -237 -198 -340 -341 -323 -445 3 -20 1
-35 -4 -35 -17 0 -33 -74 -33 -149 0 -68 -12 -93 -25 -51 -15 46 -25 14 -25
-79 0 -56 -4 -103 -10 -106 -6 -3 -10 1 -10 9 0 20 -21 66 -30 66 -15 0 -17
-37 -7 -104 9 -66 0 -116 -21 -116 -5 0 -16 25 -26 55 -18 58 -57 97 -108 110
-39 10 -35 -2 16 -55 39 -39 48 -57 69 -138 29 -108 58 -151 123 -182 74 -36
157 -49 319 -50 205 0 264 13 455 105 186 89 197 92 245 70 44 -21 57 -12 27
18 -27 27 -83 28 -157 2 -51 -17 -214 -96 -276 -134 -40 -25 -120 -27 -308
-11 -291 26 -361 42 -361 82 0 11 25 71 55 133 30 62 55 119 55 127 0 8 4 18
8 23 9 10 42 151 62 265 38 217 48 248 96 314 69 94 342 366 367 366 12 0 40
3 61 7 34 5 38 4 33 -10 -3 -9 -2 -19 2 -22 17 -10 157 24 251 61 l95 37 145
-12 c80 -6 261 -11 403 -11 312 0 421 -10 580 -51 l37 -10 0 -108 c0 -233 42
-335 162 -397 90 -46 227 -69 558 -94 143 -11 246 -22 365 -40 33 -5 101 -14
150 -20 50 -6 122 -16 160 -21 39 -6 234 -17 435 -24 201 -7 372 -15 380 -19
8 -3 21 -19 28 -34 19 -44 99 -163 131 -196 16 -17 47 -56 70 -86 101 -139 98
-135 173 -166 64 -25 86 -29 178 -29 65 0 118 5 140 14 112 43 149 65 272 164
l37 30 30 -32 c40 -43 282 -154 298 -137 9 9 -59 44 -118 62 -72 22 -163 83
-167 113 -2 13 6 45 17 71 24 57 27 112 6 130 -11 9 -20 8 -42 -7 -42 -28 -80
-43 -113 -43 -36 0 -38 15 -10 70 30 59 39 113 28 167 -6 26 -12 50 -14 52 -2
2 -22 -13 -46 -33 -24 -21 -106 -68 -183 -105 -211 -102 -197 -98 -242 -63
-45 35 -92 52 -144 52 -21 0 -41 5 -44 10 -3 6 -16 10 -28 10 -12 1 -40 14
-62 30 -68 51 -124 71 -270 99 -162 30 -220 43 -326 70 -127 33 -252 76 -286
99 -15 9 -34 12 -54 8 -25 -5 -29 -3 -27 12 3 15 -9 18 -91 24 -108 7 -161 16
-161 26 0 15 36 60 111 138 45 46 81 93 85 110 4 16 25 72 47 124 22 52 45
118 51 145 l12 50 39 -3 c26 -2 45 -10 54 -23 9 -12 25 -19 48 -19 18 0 60
-13 93 -30 33 -16 68 -30 79 -30 10 0 21 -7 25 -15 4 -11 20 -15 57 -15 28 0
65 -6 82 -14 18 -8 89 -32 159 -54 131 -42 282 -97 378 -137 30 -12 75 -29
100 -36 25 -7 54 -19 66 -26 11 -7 43 -16 70 -19 27 -4 63 -15 80 -25 17 -11
38 -19 46 -19 8 0 53 -17 99 -39 46 -21 111 -46 144 -56 33 -9 75 -22 92 -27
18 -5 39 -17 45 -26 7 -10 36 -23 63 -30 28 -7 60 -23 73 -35 19 -18 24 -19
32 -7 8 13 13 12 39 -3 16 -9 34 -17 39 -17 6 0 46 -21 89 -47 48 -28 101 -51
138 -59 57 -12 279 -87 394 -133 30 -12 122 -55 205 -95 207 -101 264 -120
556 -187 25 -6 74 -19 110 -29 120 -35 155 -41 215 -38 l60 3 -85 21 c-47 12
-150 38 -230 59 -80 20 -183 45 -230 57 -89 21 -184 50 -235 73 -16 7 -40 16
-52 19 -12 4 -59 25 -105 48 -119 58 -285 125 -413 166 -60 19 -121 43 -134
54 -13 10 -37 18 -53 18 -30 0 -151 51 -178 75 -9 8 -36 25 -61 38 -28 15 -45
31 -47 45 -2 12 1 22 7 22 22 0 10 73 -21 138 -59 123 -115 176 -229 213 -35
12 -71 28 -80 35 -32 28 -123 47 -229 48 -97 1 -110 -2 -170 -30 -36 -16 -84
-36 -108 -44 -28 -9 -49 -24 -60 -42 -9 -15 -21 -28 -27 -28 -14 0 -164 55
-230 85 -52 23 -195 73 -320 110 -164 49 -329 105 -335 114 -3 4 -32 13 -65
21 -33 7 -63 15 -67 17 -14 7 19 53 51 68 18 9 77 44 130 78 109 71 160 97
190 97 12 0 21 6 21 14 0 7 7 19 15 26 23 19 126 -2 289 -56 178 -60 239 -71
471 -84 197 -11 452 -34 570 -50 176 -26 324 -32 605 -26 162 4 338 11 390 16
178 19 275 31 320 40 25 5 74 14 110 21 58 10 102 21 205 49 82 22 213 71 310
115 17 8 53 19 79 25 74 16 292 164 368 249 20 22 42 41 48 41 23 0 118 83
192 167 99 114 135 162 187 250 56 95 64 101 89 66 52 -74 172 -384 172 -444
0 -10 5 -21 10 -24 15 -9 12 89 -4 165 -23 109 -66 231 -107 308 -42 79 -49
129 -30 215 6 23 12 54 15 69 9 42 33 60 72 52 38 -7 40 -4 20 34 -24 47 -36
199 -36 470 0 145 -5 307 -10 360 -16 145 -29 251 -40 307 -6 28 -17 84 -25
127 -42 217 -132 450 -232 600 -164 246 -482 387 -727 324 -137 -36 -228 -101
-464 -331 -122 -118 -166 -176 -157 -206 4 -11 42 -58 86 -104 43 -46 81 -95
85 -110 7 -28 0 -112 -10 -122 -9 -10 -158 110 -194 156 -18 24 -32 53 -31 65
4 51 0 56 -36 56 -33 0 -34 1 -29 30 6 30 6 30 -40 30 -61 0 -75 8 -175 101
-46 43 -107 92 -136 108 -61 35 -175 137 -175 157 0 8 -4 14 -10 14 -5 0 -220
205 -477 456 -493 481 -578 558 -659 595 -45 21 -92 50 -242 151 -31 21 -58
35 -61 33 -17 -18 185 -176 252 -197 128 -40 215 -108 428 -337 520 -559 781
-813 1023 -996 126 -95 258 -231 288 -295 47 -104 61 -175 63 -320 1 -116 5
-147 28 -220 37 -118 88 -200 187 -300 93 -94 105 -100 214 -100 78 0 137 28
224 106 l64 57 116 -115 c123 -120 238 -223 285 -253 31 -20 33 -13 17 46 -7
25 -18 39 -33 43 -23 6 -150 107 -231 184 -118 113 -135 175 -64 230 27 22 82
-10 177 -101 83 -81 140 -127 157 -127 4 0 -46 55 -112 123 -174 177 -180 189
-148 278 23 65 44 195 44 274 0 140 -39 266 -115 375 -43 61 -85 135 -85 147
0 47 143 -22 242 -116 168 -158 246 -358 263 -674 6 -117 -5 -327 -25 -467
-13 -84 -29 -207 -39 -294 -5 -48 -12 -71 -25 -78 -9 -5 -27 -33 -40 -61 -22
-50 -75 -124 -128 -177 -52 -54 -145 -136 -178 -160 -19 -13 -37 -27 -40 -30
-31 -36 -286 -167 -380 -195 -104 -31 -223 -45 -385 -45 -298 0 -510 42 -639
125 -58 37 -206 177 -206 195 0 5 -6 15 -13 22 -15 14 -83 119 -141 214 -20
33 -41 78 -47 100 -16 58 -154 377 -201 464 -22 41 -84 158 -137 260 -148 280
-301 532 -431 705 -25 34 -49 68 -55 77 -52 82 -179 246 -324 419 -200 239
-662 706 -811 820 -228 175 -706 445 -945 534 -167 62 -560 148 -840 185 -49
6 -120 16 -157 21 -82 11 -460 10 -543 -2z m6029 -2066 c33 -51 52 -111 66
-211 12 -82 10 -195 -3 -209 -9 -9 -100 79 -138 133 -46 66 -55 118 -35 188
10 33 32 76 49 97 18 21 33 39 34 39 2 0 14 -17 27 -37z m-98 -337 c16 -18 41
-49 56 -69 16 -20 40 -42 55 -49 25 -12 28 -19 26 -61 -2 -57 -16 -77 -52 -77
-40 0 -134 108 -152 175 -6 19 -18 37 -29 40 -28 9 -25 30 6 54 37 29 57 26
90 -13z m-71 -216 c48 -61 75 -101 75 -114 0 -3 -18 -6 -40 -6 -76 0 -150 97
-150 198 l0 46 31 -30 c17 -16 55 -58 84 -94z m-6610 -887 c8 -273 2 -469 -17
-523 -19 -50 -51 -100 -93 -140 -43 -41 -112 -129 -142 -182 -16 -28 -20 -47
-16 -74 5 -28 3 -35 -6 -29 -8 4 -24 -4 -42 -23 -16 -16 -82 -55 -146 -87
-260 -128 -422 -268 -564 -485 -39 -61 -139 -294 -187 -435 -28 -86 -35 -110
-62 -235 -28 -129 -79 -258 -131 -332 -113 -163 -345 -360 -526 -448 -102 -50
-136 -61 -237 -75 -26 -4 -82 -17 -124 -31 -42 -13 -78 -24 -79 -24 -2 0 0 24
3 53 6 55 -8 129 -45 229 -39 106 -23 169 63 258 30 30 85 98 123 151 89 124
133 174 404 463 298 317 453 467 613 589 71 55 97 154 116 442 15 242 34 437
61 650 33 261 32 260 113 305 29 17 61 39 71 50 11 12 31 20 49 20 28 0 190
39 376 90 111 31 305 66 376 69 l42 1 7 -247z m810 137 c445 -92 845 -240
1408 -522 195 -97 359 -186 432 -234 14 -9 25 -22 25 -29 0 -7 -14 -49 -31
-94 -48 -125 -73 -143 -274 -192 -107 -26 -178 -56 -221 -92 -18 -15 -36 -27
-40 -27 -5 -1 -27 -23 -49 -50 -27 -34 -45 -48 -55 -43 -8 3 -42 9 -75 13 -33
4 -78 13 -100 22 -69 26 -107 36 -220 57 -104 19 -150 25 -340 51 -99 13 -160
27 -205 48 -23 11 -73 18 -147 20 l-112 4 -7 32 c-12 56 -76 173 -145 265
l-67 90 10 73 c5 40 14 102 19 138 5 36 14 111 19 168 14 158 26 226 55 319 3
9 12 10 32 4 15 -5 55 -14 88 -21z m234 -1140 c70 -23 160 -45 226 -54 203
-29 259 -38 345 -58 47 -10 94 -23 105 -29 11 -5 52 -11 90 -14 39 -2 111 -9
160 -15 50 -6 153 -13 230 -16 l140 -5 -32 20 c-30 19 -44 41 -25 41 4 0 39
-7 77 -15 130 -27 225 -68 225 -97 0 -9 10 -29 23 -45 65 -80 87 -154 87 -290
0 -153 -24 -223 -115 -333 l-50 -61 -105 6 c-58 3 -131 6 -162 7 -43 0 -58 4
-58 14 0 11 -9 13 -39 8 -37 -6 -39 -5 -34 16 5 20 3 21 -31 15 -26 -5 -51 -1
-89 13 -28 11 -79 26 -112 33 -82 17 -145 48 -163 78 -14 26 -16 26 -146 28
-72 1 -158 6 -191 12 -33 5 -95 15 -138 22 -48 7 -88 20 -104 32 -24 19 -27
19 -38 4 -17 -24 -74 -46 -140 -53 l-57 -7 6 31 c10 44 -11 52 -42 16 -20 -23
-38 -31 -90 -39 -45 -8 -76 -8 -98 -1 l-33 11 23 25 c58 61 114 216 137 371
11 84 8 279 -7 342 l-6 27 57 0 c41 0 92 -11 174 -40z"/>
<path d="M9322 7036 c12 -21 113 -132 223 -248 109 -115 210 -224 223 -243 18
-25 54 -48 128 -85 57 -27 106 -50 109 -50 3 0 5 36 5 79 0 84 14 248 29 346
6 33 12 83 15 110 5 46 4 48 -8 25 -15 -28 -29 -98 -66 -335 -7 -38 -15 -81
-20 -95 -4 -14 -11 -33 -14 -43 -5 -15 -9 -16 -26 -7 -11 6 -134 120 -273 252
-139 133 -274 262 -300 287 l-49 46 24 -39z"/>
<path d="M12510 3894 c0 -25 93 -201 115 -217 18 -13 50 -3 47 15 -3 20 -97
184 -120 211 -22 25 -42 21 -42 -9z"/>
<path d="M826 2331 c-3 -5 16 -14 42 -20 100 -26 121 -35 178 -77 32 -24 63
-44 69 -44 5 0 42 -24 82 -54 66 -49 200 -112 223 -104 22 7 -34 89 -93 136
-95 73 -132 93 -226 119 -47 13 -110 30 -139 38 -59 17 -128 20 -136 6z"/>
<path d="M247 1753 c-26 -43 -29 -44 -46 -29 -22 20 -31 20 -31 2 0 -18 85
-96 106 -96 12 0 14 5 8 18 -5 9 -9 47 -9 85 0 37 0 67 0 67 0 0 -13 -21 -28
-47z"/>
<path d="M438 1563 c-26 -25 -28 -26 -52 -10 -14 10 -28 17 -31 17 -12 0 8
-47 46 -106 22 -34 43 -78 46 -98 3 -20 11 -35 17 -33 12 3 58 90 75 142 11
30 10 29 -20 -7 -17 -21 -34 -38 -38 -38 -4 0 -14 18 -21 40 -10 31 -11 49 -2
77 6 20 10 38 9 40 -2 1 -15 -9 -29 -24z"/>
<path d="M3673 1146 c3 -19 12 -50 20 -68 27 -58 57 -154 57 -179 0 -40 11
-69 26 -69 32 0 8 193 -33 275 -18 36 -53 75 -66 75 -5 0 -7 -15 -4 -34z"/>
<path d="M4835 1008 c-65 -28 -155 -87 -163 -106 -7 -18 48 -67 131 -117 95
-57 99 -43 12 46 l-80 80 30 25 c33 28 128 74 150 74 8 0 15 5 15 10 0 16 -41
11 -95 -12z"/>
<path d="M3615 948 c-3 -24 -1 -74 4 -113 13 -87 14 -146 1 -165 -8 -13 -12
-12 -29 5 -16 15 -23 44 -32 120 -22 190 -41 192 -60 8 -9 -90 -18 -138 -27
-141 -18 -6 -42 59 -42 115 0 54 -17 123 -30 123 -19 0 -30 -98 -18 -179 9
-64 8 -83 -2 -96 -7 -8 -18 -15 -24 -15 -29 1 -40 22 -47 91 -14 124 -41 119
-69 -13 -26 -121 -30 -136 -47 -149 -20 -18 -29 -1 -37 73 -14 124 -31 118
-40 -12 -7 -105 -12 -130 -27 -130 -11 0 -39 95 -39 132 0 16 -7 43 -16 60
-26 50 -38 20 -42 -105 -2 -62 -8 -124 -14 -139 -22 -57 -54 -22 -77 82 -23
106 -51 107 -51 2 0 -106 -9 -142 -37 -153 -39 -15 -57 3 -68 67 -5 32 -15 59
-22 61 -17 6 -49 -50 -57 -99 -6 -38 -8 -40 -25 -24 -21 20 -45 6 -60 -36 -9
-25 -16 -28 -54 -28 -42 0 -43 -1 -39 -29 3 -21 -2 -33 -19 -45 -38 -26 -57
-21 -61 17 -3 28 -6 32 -33 32 -23 0 -31 -5 -33 -23 -4 -29 -25 -28 -58 3 -34
31 -44 29 -58 -15 -14 -44 -34 -44 -64 0 -32 48 -46 45 -50 -12 -2 -27 -8 -48
-14 -48 -6 0 -8 -10 -4 -25 5 -19 2 -25 -9 -25 -49 0 -116 66 -132 130 -7 28
-14 35 -34 35 -20 0 -25 -6 -27 -33 -2 -22 -8 -32 -21 -32 -21 0 -41 19 -41
40 0 43 -102 92 -218 106 -64 7 -77 -1 -46 -27 22 -18 44 -64 44 -91 1 -13 9
-48 20 -78 10 -30 17 -57 14 -59 -9 -9 -86 34 -118 67 -48 47 -60 89 -52 179
5 67 4 74 -12 71 -21 -4 -40 -60 -51 -145 -4 -35 -10 -66 -14 -69 -11 -12 -37
5 -58 38 -23 37 -21 99 6 177 19 54 11 65 -21 28 -23 -27 -54 -112 -54 -151
-1 -52 -39 -56 -64 -7 -12 23 -11 35 13 111 38 116 43 140 32 140 -25 0 -94
-120 -105 -183 -8 -41 -32 -59 -47 -36 -15 21 -2 95 33 196 24 70 29 96 21
104 -9 9 -21 -3 -51 -49 -21 -33 -45 -74 -52 -91 -20 -50 -33 -38 -27 25 3 33
18 79 37 116 23 43 29 63 21 71 -15 15 -50 -20 -92 -94 -30 -55 -34 -59 -37
-35 -2 14 4 70 13 122 9 53 14 98 12 100 -8 8 -65 -131 -76 -187 -17 -81 -1
-138 58 -203 26 -28 60 -73 76 -99 17 -26 39 -62 50 -80 12 -18 40 -43 64 -56
40 -22 48 -23 85 -13 37 10 46 9 96 -17 95 -49 400 -111 547 -111 59 0 110 -6
140 -16 53 -18 167 -16 298 6 363 60 460 94 874 314 79 42 145 76 147 76 10 0
119 72 196 130 164 123 293 187 436 216 76 15 84 15 101 0 15 -14 50 -16 272
-15 140 1 288 5 329 8 l75 7 -40 13 c-37 13 -219 19 -705 25 -88 0 -119 -5
-185 -35 -21 -9 -105 -39 -111 -39 -7 0 -34 105 -34 134 0 45 -24 129 -37 133
-7 3 -14 -13 -18 -39z"/>
<path d="M10085 933 c35 -27 239 -122 290 -134 28 -6 58 -15 67 -20 10 -5 28
-9 40 -9 20 1 18 4 -12 20 -19 11 -45 19 -57 20 -23 0 -133 45 -252 104 -78
38 -110 46 -76 19z"/>
</g>
</svg>
